<svg width="465" height="166" viewBox="0 0 465 166" fill="none" xmlns="http://www.w3.org/2000/svg">
<g filter="url(#filter0_f_5_159)">
<path d="M12.0337 128.402C25.3112 57.4275 87.2704 5.98444 159.476 5.98444H304.99C377.196 5.98444 439.155 57.4275 452.432 128.402L459.466 166H5L12.0337 128.402Z" fill="url(#paint0_linear_5_159)"/>
<path d="M13.9996 128.769C27.1 58.7416 88.2331 7.98444 159.476 7.98444H304.99C376.233 7.98444 437.366 58.7416 450.466 128.769L457.057 164H7.40885L13.9996 128.769Z" stroke="url(#paint1_linear_5_159)" stroke-width="4"/>
</g>
<path d="M13.9996 128.769C27.1 58.7416 88.2331 7.98444 159.476 7.98444H304.99C376.233 7.98444 437.366 58.7416 450.466 128.77L457.057 164H7.40885L13.9996 128.769Z" stroke="url(#paint2_linear_5_159)" stroke-width="4"/>

<g opacity="0.2" filter="url(#filter2_d_5_159)">
<line x1="152.5" y1="80.5" x2="312.5" y2="80.5" stroke="white" stroke-linecap="round"/>
</g>
<defs>
<filter id="filter0_f_5_159" x="0" y="0.984436" width="464.466" height="170.016" filterUnits="userSpaceOnUse" color-interpolation-filters="sRGB">
<feFlood flood-opacity="0" result="BackgroundImageFix"/>
<feBlend mode="normal" in="SourceGraphic" in2="BackgroundImageFix" result="shape"/>
<feGaussianBlur stdDeviation="2.5" result="effect1_foregroundBlur_5_159"/>
</filter>
<filter id="filter1_d_5_159" x="208.8" y="26.6" width="45.815" height="46.4" filterUnits="userSpaceOnUse" color-interpolation-filters="sRGB">
<feFlood flood-opacity="0" result="BackgroundImageFix"/>
<feColorMatrix in="SourceAlpha" type="matrix" values="0 0 0 0 0 0 0 0 0 0 0 0 0 0 0 0 0 0 127 0" result="hardAlpha"/>
<feOffset/>
<feGaussianBlur stdDeviation="3.5"/>
<feColorMatrix type="matrix" values="0 0 0 0 1 0 0 0 0 1 0 0 0 0 1 0 0 0 0.6 0"/>
<feBlend mode="normal" in2="BackgroundImageFix" result="effect1_dropShadow_5_159"/>
<feBlend mode="normal" in="SourceGraphic" in2="effect1_dropShadow_5_159" result="shape"/>
</filter>
<filter id="filter2_d_5_159" x="145" y="73" width="175" height="15" filterUnits="userSpaceOnUse" color-interpolation-filters="sRGB">
<feFlood flood-opacity="0" result="BackgroundImageFix"/>
<feColorMatrix in="SourceAlpha" type="matrix" values="0 0 0 0 0 0 0 0 0 0 0 0 0 0 0 0 0 0 127 0" result="hardAlpha"/>
<feOffset/>
<feGaussianBlur stdDeviation="3.5"/>
<feColorMatrix type="matrix" values="0 0 0 0 1 0 0 0 0 1 0 0 0 0 1 0 0 0 0.3 0"/>
<feBlend mode="normal" in2="BackgroundImageFix" result="effect1_dropShadow_5_159"/>
<feBlend mode="normal" in="SourceGraphic" in2="effect1_dropShadow_5_159" result="shape"/>
</filter>
<linearGradient id="paint0_linear_5_159" x1="232" y1="6" x2="232" y2="246" gradientUnits="userSpaceOnUse">
<stop stop-color="#160202"/>
<stop offset="0.0001" stop-color="#160202"/>
<stop offset="1" stop-color="#160202" stop-opacity="0"/>
</linearGradient>
<linearGradient id="paint1_linear_5_159" x1="232" y1="6" x2="232" y2="138" gradientUnits="userSpaceOnUse">
<stop stop-color="#8F1A1A"/>
<stop offset="1" stop-color="#160202" stop-opacity="0"/>
</linearGradient>
<linearGradient id="paint2_linear_5_159" x1="232.233" y1="5.98444" x2="232.233" y2="166" gradientUnits="userSpaceOnUse">
<stop stop-color="#8F1A1A"/>
<stop offset="1" stop-color="#160202" stop-opacity="0"/>
</linearGradient>
</defs>
</svg>
